<svg xmlns="http://www.w3.org/2000/svg"
    xmlns:xlink="http://www.w3.org/1999/xlink">

    <path d="M155.0,526.5Q155.5,499.5,145.25,490.75 135.0,482.0,123.25,477.0 111.5,472.0,98.75,469.5 86.0,467.0,73.0,466.0 60.0,465.0,59.0,463.0 84.5,447.5,92.5,437.0 100.5,426.5,105.0,412.75 109.5,399.0,99.5,388.0 89.5,377.0,77.5,368.25 65.5,359.5,53.5,356.25 41.5,353.0,40.0,352.5 66.0,338.0,75.5,328.0 85.0,318.0,89.25,303.25 93.5,288.5,92.75,273.75 92.0,259.0,83.5,249.5 75.0,240.0,63.5,233.75 52.0,227.5,43.0,223.5 70.0,225.5,82.5,222.0 95.0,218.5,100.0,204.75 105.0,191.0,105.0,173.5 105.0,156.0,103.25,142.5 101.5,129.0,95.5,115.0 121.5,138.5,135.25,143.0 149.0,147.5,164.5,146.0 180.0,144.5,192.5,136.0 205.0,127.5,210.5,116.5 216.0,105.5,216.0,104.5 214.0,138.5,215.0,154.5 216.0,170.5,229.75,177.5 243.5,184.5,258.0,184.75 272.5,185.0,284.75,184.0 297.0,183.0,297.0,183.0 274.5,196.5,265.25,208.0 256.0,219.5,251.75,233.5 247.5,247.5,251.0,261.0 254.5,274.5,269.0,276.5 283.5,278.5,296.5,278.75 309.5,279.0,310.5,277.5 283.0,284.0,272.25,292.0 261.5,300.0,255.0,311.75 248.5,323.5,250.5,337.0 252.5,350.5,266.0,355.75 279.5,361.0,292.25,362.5 305.0,364.0,314.5,364.0 283.5,372.0,274.75,383.25 266.0,394.5,261.0,407.5 256.0,420.5,262.25,432.75 268.5,445.0,281.25,450.5 294.0,456.0,311.5,461.5 280.5,464.0,267.5,469.75 254.5,475.5,247.0,485.75 239.5,496.0,232.75,508.75 226.0,521.5,225.0,533.0 225.0,531.5,227.0,529.5" 
          style="stroke:#660000; fill:none;"/>    
</svg>
